<svg xmlns="http://www.w3.org/2000/svg" width="1280" height="720" viewBox="0 0 1280 720">
  <defs>
    <filter id="shadow" x="-30%" y="-30%" width="160%" height="160%"><feDropShadow dx="7" dy="9" stdDeviation="6" flood-color="#000000" flood-opacity="0.52"/></filter>
  </defs>
  <!-- Fondo transparente: listo para insertar sobre una diapositiva o pantalla web -->
  <g id="panal_octogonal_exploded"><g id="pieza_01" filter="url(#shadow)"><polygon points="138.12,170 233.88,170 300,217.56 300,286.44 233.88,334 138.12,334 72,286.44 72,217.56" fill="#182434" stroke="#6C87A1" stroke-width="3"/><text x="186.00" y="256.00" text-anchor="middle" font-family="Arial, sans-serif" font-size="15" font-weight="700" fill="#F3F0E7"><tspan x="186.00" dy="-8">ORIENTACIONES</tspan><tspan x="186.00" dy="18">BIOGRÁFICAS</tspan></text></g>
<g id="pieza_02" filter="url(#shadow)"><polygon points="451.12,114 546.88,114 613,161.56 613,230.44 546.88,278 451.12,278 385,230.44 385,161.56" fill="#12363B" stroke="#62AAA6" stroke-width="3"/><text x="499.00" y="200.00" text-anchor="middle" font-family="Arial, sans-serif" font-size="15" font-weight="700" fill="#F3F0E7"><tspan x="499.00" dy="-8">DEVENIR DOCENTE-</tspan><tspan x="499.00" dy="18">INVESTIGADOR</tspan></text></g>
<g id="pieza_03" filter="url(#shadow)"><polygon points="958.12,160 1053.88,160 1120,207.56 1120,276.44 1053.88,324 958.12,324 892,276.44 892,207.56" fill="#4A2730" stroke="#C87583" stroke-width="3"/><text x="1006.00" y="246.00" text-anchor="middle" font-family="Arial, sans-serif" font-size="15" font-weight="700" fill="#F3F0E7"><tspan x="1006.00" dy="-8">AFECTAR Y SER AFECTADXS</tspan><tspan x="1006.00" dy="18">EN LA DIRECCIÓN</tspan></text></g>
<g id="pieza_04" filter="url(#shadow)"><polygon points="238.12,492 333.88,492 400,539.56 400,608.44 333.88,656 238.12,656 172,608.44 172,539.56" fill="#292C50" stroke="#8B8ED0" stroke-width="3"/><text x="286.00" y="578.00" text-anchor="middle" font-family="Arial, sans-serif" font-size="15" font-weight="700" fill="#F3F0E7"><tspan x="286.00" dy="-8">POSICIONAMIENTO</tspan><tspan x="286.00" dy="18">EPISTEMOLÓGICO</tspan></text></g>
<g id="pieza_05" filter="url(#shadow)"><polygon points="990.12,490 1085.88,490 1152,537.56 1152,606.44 1085.88,654 990.12,654 924,606.44 924,537.56" fill="#384129" stroke="#A3B77A" stroke-width="3"/><text x="1038.00" y="576.00" text-anchor="middle" font-family="Arial, sans-serif" font-size="15" font-weight="700" fill="#F3F0E7"><tspan x="1038.00" dy="-8">UNA ÉPOCA</tspan><tspan x="1038.00" dy="18">SINGULAR</tspan></text></g></g>
</svg>